<?xml version="1.0" encoding="utf-8"?>
<!-- Generator: Adobe Illustrator 16.0.0, SVG Export Plug-In . SVG Version: 6.00 Build 0)  -->
<!DOCTYPE svg PUBLIC "-//W3C//DTD SVG 1.1//EN" "http://www.w3.org/Graphics/SVG/1.1/DTD/svg11.dtd">
<svg version="1.1" xmlns="http://www.w3.org/2000/svg" xmlns:xlink="http://www.w3.org/1999/xlink" x="0px" y="0px" width="959px"
	 height="593px" viewBox="0 0 959 593" enable-background="new 0 0 959 593" xml:space="preserve">
	<g data-which="south">
		<path id="FL" fill="#008080" d="M755.396,445.507l2.267,7.318l3.729,9.742l5.335,9.377l3.719,6.305l4.85,5.496l4.042,3.718
			l1.616,2.91l-1.131,1.293l-0.81,1.294l2.91,7.438l2.909,2.908l2.587,5.335l3.557,5.82l4.526,8.244l1.293,7.599l0.485,11.963
			l0.646,1.778l-0.323,3.396l-2.425,1.293l0.323,1.939l-0.646,1.939l0.322,2.425l0.485,1.94l-2.749,3.232l-3.071,1.454l-3.88,0.162
			l-1.455,1.616l-2.425,0.971l-1.293-0.485l-1.132-0.97l-0.323-2.91l-0.81-3.395l-3.395-5.174l-3.557-2.264l-3.881-0.322
			l-0.809,1.293l-3.071-4.365l-0.646-3.556l-2.587-4.043l-1.778-1.132l-1.616,2.103l-1.777-0.323l-2.103-5.012l-2.91-3.879
			l-2.908-5.335l-2.588-3.072l-3.557-3.719l2.103-2.425l3.232-5.496l-0.162-1.616l-4.525-0.971l-1.616,0.646l0.323,0.646
			l2.587,0.971l-1.455,4.526l-0.81,0.484l-1.777-4.041l-1.294-4.852l-0.322-2.747l1.455-4.688v-9.538l-3.072-3.719l-1.293-3.071
			l-5.173-1.293l-1.94-0.646l-1.616-2.587l-3.396-1.616l-1.131-3.396l-2.749-0.97l-2.425-3.718l-4.203-1.455l-2.91-1.455h-2.586
			l-4.042,0.808l-0.161,1.94l0.809,0.97l-0.484,1.132l-3.071-0.162l-3.719,3.558l-3.558,1.939h-3.88l-3.231,1.293l-0.323-2.748
			l-1.617-1.938l-2.91-1.132l-1.615-1.455l-8.083-3.88l-7.599-1.778l-4.365,0.646l-5.98,0.484l-5.981,2.103l-3.479,0.611
			l-0.237-8.05l-2.587-1.938l-1.778-1.778l0.323-3.071l10.186-1.294l25.543-2.909l6.789-0.646l5.437,0.28l2.586,3.88l1.455,1.454
			l8.099,0.516l10.819-0.646l21.513-1.294l5.445-0.674l4.577,0.027l0.162,2.91l3.824,0.809l0.322-4.807l-1.616-4.527l0.955-0.731
			l5.112,0.454L755.396,445.507z M767.942,577.912l2.425-0.646l1.294-0.242l1.455-2.345l2.344-1.616l1.293,0.484l1.698,0.323
			l0.403,1.051l-3.477,1.213l-4.203,1.455l-2.344,1.212L767.942,577.912z M781.441,572.9l1.213,1.051l2.748-2.103l5.335-4.202
			l3.718-3.881l2.506-6.628l0.97-1.696l0.162-3.396l-0.728,0.485l-0.972,2.829l-1.454,4.606l-3.232,5.254l-4.365,4.203l-3.395,1.939
			L781.441,572.9z"/>
		<path id="SC" fill="#008080" d="M761.23,412.938l-1.776,0.971l-2.587-1.293l-0.646-2.103l-1.293-3.557l-2.264-2.103l-2.587-0.646
			l-1.616-4.851l-2.748-5.98l-4.203-1.939l-2.102-1.94l-1.294-2.586l-2.103-1.938l-2.263-1.295l-2.264-2.908l-3.071-2.265
			l-4.526-1.778l-0.484-1.455l-2.425-2.91l-0.484-1.453l-3.396-5.174l-3.395,0.162l-4.042-2.427l-1.293-1.293l-0.323-1.778
			l0.81-1.939l2.263-0.969l-0.323-2.103l6.145-2.587l9.053-4.525l7.273-0.81l16.489-0.483l2.264,1.938l1.616,3.231l4.365-0.483
			l12.609-1.455l2.909,0.81l12.609,7.598l10.108,8.122l-5.423,5.458l-2.586,6.143l-0.484,6.307l-1.616,0.808l-1.132,2.748
			l-2.425,0.647l-2.103,3.557l-2.748,2.748l-2.264,3.395l-1.616,0.81l-3.557,3.395l-2.91,0.162l0.97,3.233l-5.011,5.495
			L761.23,412.938z"/>
		<path id="GA" fill="#008080" d="M689.616,357.973l-4.851,0.81l-8.405,1.131l-8.568,0.89v2.184l0.162,2.102l0.646,3.395
			l3.396,7.922l2.425,9.861l1.455,6.144l1.617,4.85l1.455,6.952l2.102,6.305l2.586,3.396l0.485,3.395l1.938,0.81l0.162,2.102
			l-1.777,4.851l-0.485,3.232l-0.161,1.94l1.616,4.363l0.323,5.336l-0.809,2.425l0.646,0.809l1.455,0.81l0.646,3.395l2.586,3.88
			l1.455,1.455l7.922,0.161l10.819-0.646l21.513-1.293l5.445-0.675l4.577,0.028l0.162,2.909l2.587,0.809l0.323-4.364l-1.617-4.526
			l1.132-1.616l5.82,0.809l4.977,0.317l-0.774-6.299l2.264-10.022l1.455-4.203l-0.485-2.587l3.335-6.244l-0.511-1.352l-1.913,0.704
			l-2.587-1.293l-0.646-2.103l-1.294-3.557l-2.264-2.102l-2.587-0.646l-1.616-4.85l-2.925-6.335l-4.203-1.94l-2.102-1.94
			l-1.294-2.586l-2.103-1.938l-2.263-1.294l-2.264-2.909l-3.071-2.265l-4.526-1.777l-0.484-1.455l-2.425-2.91l-0.485-1.453
			l-3.396-4.908l-3.395,0.16l-4.13-3.043l-1.294-1.293l-0.323-1.779l0.809-1.939l2.353-1.234L709.1,356l0.078-0.291l-5.819,0.971
			l-6.951,0.81L689.616,357.973z"/>
		<path id="AL" fill="#008080" d="M625.598,466.771l-1.614-15.196l-2.748-18.753l0.161-14.064l0.809-31.037l-0.162-16.652
			l0.165-6.418l7.757-0.371l27.807-2.586l8.922-0.662l-0.147,2.182l0.162,2.102l0.646,3.396l3.395,7.922l2.425,9.861l1.455,6.143
			l1.617,4.852l1.454,6.95l2.102,6.306l2.587,3.396l0.485,3.396l1.939,0.809l0.161,2.103l-1.777,4.85l-0.485,3.233l-0.161,1.938
			l1.616,4.365l0.323,5.335l-0.81,2.425l0.647,0.809l1.454,0.809l1.036,2.535h-6.307l-6.789,0.646l-25.543,2.91l-10.41,1.407
			l-0.098,3.752l1.778,1.778l2.587,1.938l0.581,7.937l-5.542,2.572l-2.749-0.322l2.749-1.94v-0.97l-3.072-5.981l-2.263-0.646
			l-1.455,4.365l-1.293,2.747l-0.647-0.161h-2.748V466.771z"/>
		<path id="NC" fill="#008080" d="M832.106,298.473l1.71,4.697l3.557,6.467l2.425,2.426l0.646,2.264l-2.425,0.16l0.809,0.646
			l-0.323,4.203l-2.587,1.294l-0.646,2.103l-1.293,2.908l-3.72,1.617l-2.425-0.322l-1.455-0.162l-1.616-1.293l0.323,1.293v0.97
			h1.939l0.809,1.294l-1.938,6.305h4.202l0.646,1.616l2.263-2.263l1.294-0.485l-1.939,3.558l-3.071,4.85h-1.293l-1.132-0.484
			l-2.748,0.646l-5.174,2.425l-6.466,5.335l-3.396,4.688l-1.939,6.467l-0.484,2.426l-4.688,0.484l-5.453,1.336l-9.945-8.201
			l-12.61-7.598l-2.909-0.81l-12.608,1.455l-4.277,0.75l-1.616-3.233l-2.971-2.115l-16.489,0.484l-7.273,0.809l-9.054,4.525
			l-6.144,2.587l-1.616,0.323l-5.82,0.97l-6.95,0.81l-6.79,0.484l0.5-4.055l1.777-1.455l2.749-0.646l0.646-3.719l4.203-2.748
			l3.88-1.455l4.203-3.557l4.364-2.102l0.646-3.071l3.881-3.88l0.646-0.162c0,0,0,1.133,0.808,1.133c0.809,0,1.94,0.322,1.94,0.322
			l2.263-3.557l2.102-0.646l2.265,0.324l1.615-3.557l2.91-2.588l0.485-2.102v-3.961l4.525,0.728l7.137-1.293l15.819-1.938
			l17.137-2.588l19.922-4l19.732-4.164l11.364-2.797L832.106,298.473z M836.002,331.459l2.587-2.505l3.152-2.587l1.535-0.646
			l0.161-2.021l-0.646-6.144l-1.455-2.344l-0.646-1.859l0.728-0.242l2.748,5.496l0.404,4.445l-0.162,3.396l-3.396,1.535
			l-2.829,2.425l-1.132,1.213L836.002,331.459z"/>
		<path id="TN" fill="#008080" d="M697.053,320.629l-51.893,5.012l-15.76,1.778l-4.621,0.513l-3.868-0.027v3.88l-8.407,0.485
			l-6.951,0.646l-11.096,0.053l-0.265,5.836l-2.14,6.274l-0.995,3.017l-1.349,4.381l-0.323,2.586l-4.041,2.265l1.455,3.557
			l-0.971,4.365l-0.968,0.789l7.256-0.194l24.087-1.939l5.335-0.161l8.083-0.485l27.806-2.586l10.171-0.809l8.42-0.971l8.406-1.131
			l4.852-0.81l-0.132-4.511l1.778-1.453l2.748-0.647l0.646-3.718l4.202-2.748l3.881-1.455l4.203-3.556l4.364-2.103l0.874-3.525
			l4.333-3.881l0.646-0.162c0,0,0,1.134,0.809,1.134c0.81,0,1.94,0.321,1.94,0.321l2.263-3.557l2.103-0.646l2.264,0.323l1.616-3.557
			l2.115-2.246l0.6-0.967l0.177-3.934l-1.483-0.287l-2.425,1.938l-7.922,0.162l-11.995,1.899L697.053,320.629z"/>
		<path id="WV" fill="#008080" d="M756.561,241.967l1.112,4.944l1.083,6.907l3.561-2.749l2.264-3.071l2.538-0.616l1.455-1.455
			l1.777-2.586l1.181,0.646l2.91-0.323l2.586-2.102l2.007-1.453l1.846-0.485l1.304,1.016l2.229,1.115l1.938,1.778l1.375,1.293
			l-0.144,4.671l-5.658-3.072l-4.525-1.778l-0.162,5.335l-0.484,2.102l-1.617,2.748l-0.646,1.617l-3.071,2.425l-0.485,2.264
			l-3.395,0.323l-0.323,3.071l-1.132,5.497h-2.587l-1.293-0.808l-1.616-2.749l-1.778,0.162l-0.322,4.365l-2.103,6.628l-5.012,10.831
			l0.809,1.293l-0.162,2.748l-2.102,1.94l-1.455-0.323l-3.232,2.425l-2.586-0.97l-1.778,4.688c0,0-3.719,0.81-4.365,0.972
			c-0.646,0.16-2.425-1.295-2.425-1.295l-2.425,2.264l-2.587,0.646l-2.91-0.809l-1.293-1.294l-2.192-3.022l-3.143-1.988
			l-2.586-2.748l-2.91-3.718l-0.646-2.263l-2.587-1.455l-0.809-1.617l-0.242-5.254l2.183-0.081l1.939-0.808l0.162-2.748l1.616-1.455
			l0.162-5.012l0.97-3.88l1.293-0.646l1.294,1.132l0.484,1.778l1.777-0.97l0.485-1.617l-1.132-1.778v-2.425l0.97-1.293l2.264-3.395
			l1.293-1.455l2.103,0.485l2.264-1.617l3.071-3.395l2.264-3.88l0.323-5.658l0.483-5.012v-4.688l-1.131-3.071l0.97-1.455
			l1.283-1.293l3.491,19.827l4.631-0.751L756.561,241.967z"/>
		<path id="KY" fill="#008080" d="M721.783,297.818l-2.325,2.683l-4.203,3.556l-4.299,5.902l-1.778,1.779v2.102l-3.88,2.102
			l-5.658,3.396l-3.52,0.386l-51.868,4.897l-15.76,1.778l-4.621,0.513l-3.868-0.027l-0.227,4.222l-8.181,0.145l-6.951,0.646
			l-10.431,0.205l1.912-0.223l2.181-1.762l2.059-1.145l0.229-3.201l0.914-1.828l-1.605-2.539l0.802-1.905l2.264-1.778l2.103-0.646
			l2.748,1.293l3.557,1.294l1.131-0.323l0.162-2.264l-1.293-2.426l0.323-2.262l1.938-1.455l2.587-0.646l1.616-0.646l-0.808-1.779
			l-0.647-1.938l1.132-0.809l1.052-3.314l2.99-1.696l5.819-0.97l3.557-0.485l1.455,1.939l1.778,0.809l1.778-3.232l2.91-1.455
			l1.938,1.617l0.81,1.131l2.102-0.484l-0.162-3.395l2.91-1.617l1.132-0.808l1.132,1.616h4.688l0.809-2.102l-0.322-2.263
			l2.909-3.557l4.688-3.88l0.484-4.526l2.748-0.323l3.881-1.778l2.747-1.94l-0.322-1.94l-1.455-1.455l0.565-2.182l4.122-0.243
			l2.425-0.808l2.91,1.617l1.616,4.365l5.82,0.323l1.777,1.778l2.103,0.162l2.425-1.455l3.071,0.485l1.293,1.455l2.748-2.586
			l1.777-1.293h1.617l0.646,2.749l1.777,0.97l2.423,2.215l0.16,5.496l0.81,1.617l2.587,1.455l0.646,2.263l2.91,3.718l2.586,2.748
			L721.783,297.818z"/>
		<path id="TX" fill="#008080" d="M357.054,333.374l22.69,1.086l31.093,1.144l-2.335,23.455l-0.297,18.154l0.068,2.081l4.344,3.817
			l1.736,0.822l1.81,0.254l0.687-1.256l0.891,0.866l1.736,0.479l1.604-0.729l1.139,0.409l-0.297,3.405l4.275,1.029l2.676,0.822
			l3.954,0.525l2.194,1.828l3.249-1.575l2.786,0.364l2.034,2.787l1.074,0.321l-0.16,1.966l3.089,1.167l2.769-1.805l1.508,0.364
			l2.354,0.16l0.434,1.873l4.641,1.989l2.656-0.205l1.989-4.114h0.341l1.143,1.896l4.438,1.007l3.337,1.211l3.293,0.754l2.149-0.754
			l0.847-2.515h3.702l1.896,0.754l3.064-1.576h0.661l0.364,1.119h4.275l2.403-1.256l1.668,0.297l1.416,1.873l2.88,1.669l3.521,1.075
			l2.743,1.418l2.447,1.622l3.293-0.892l1.939,0.983l0.513,10.139l0.335,9.703l0.686,9.533l0.525,4.047l2.676,4.598l1.075,4.066
			l3.862,6.289l0.55,2.88l0.524,1.007l-0.687,7.496l-2.65,4.389l0.958,2.859l-0.364,2.516l-0.847,7.315l-1.372,2.719l0.604,4.388
			l-5.665,1.585l-9.861,4.525l-0.97,1.939l-2.587,1.939l-2.103,1.455l-1.293,0.81l-5.657,5.334l-2.748,2.102l-5.335,3.233
			l-5.658,2.425l-6.305,3.396l-1.778,1.453l-5.82,3.558l-3.395,0.646l-3.88,5.496l-4.041,0.323l-0.972,1.938l2.265,1.94
			l-1.455,5.496l-1.293,4.526l-1.132,3.88l-0.81,4.526l0.81,2.426l1.777,6.95l0.97,6.144l1.778,2.749l-0.97,1.454l-3.072,1.939
			l-5.657-3.88l-5.497-1.132l-1.293,0.484l-3.232-0.646l-4.203-3.072l-5.173-1.131l-7.6-3.396l-2.102-3.881l-1.293-6.466
			l-3.233-1.939l-0.646-2.264l0.646-0.646l0.323-3.396l-1.293-0.646l-0.646-0.97l1.293-4.365l-1.616-2.263L408,530.781l-3.395-4.364
			l-3.558-6.629l-4.202-2.586l0.16-1.94l-5.335-12.286l-0.808-4.203l-1.778-1.938l-0.162-1.455l-5.98-5.335l-2.586-3.071v-1.132
			l-2.587-2.102l-6.79-1.133l-7.438-0.646l-3.07-2.263l-4.526,1.776l-3.557,1.455l-2.265,3.233l-0.97,3.719l-4.364,6.143
			l-2.425,2.426l-2.587-0.971L338,496.348l-1.939-0.646l-3.881-2.265v-0.646l-1.776-1.939l-5.174-2.102l-7.438-7.76l-2.263-4.688
			v-8.083l-3.233-6.466l-0.484-2.749l-1.616-0.97l-1.132-2.103l-5.011-2.102l-1.293-1.616l-7.113-7.922l-1.293-3.233l-4.688-2.263
			l-1.455-4.365l-2.586-2.91l-1.94-0.483l-0.649-4.679l8.002,0.687l29.035,2.744l29.035,1.6l2.286-23.775l3.887-55.556l1.601-18.748
			l1.372,0.029 M457.23,567.323l-0.566-7.113l-2.748-7.194l-0.565-7.031l1.535-8.244l3.314-6.871l3.476-5.415l3.152-3.557
			l0.646,0.241l-4.769,6.629l-4.365,6.548l-2.021,6.628l-0.323,5.173l0.889,6.144l2.587,7.193l0.485,5.174l0.161,1.454
			L457.23,567.323z"/>
		<path id="MS" fill="#008080" d="M624.559,466.97l-0.254,1.256h-5.173l-1.455-0.809l-2.102-0.323l-6.79,1.94l-1.778-0.81
			l-2.587,4.203l-1.103,0.778l-1.123-2.488l-1.145-3.887l-3.43-3.2l1.144-7.545l-0.686-0.914l-1.829,0.229l-8.229,0.686
			l-24.234,0.688l-0.457-1.602l0.686-8.002l3.431-6.173l5.258-9.145l-0.914-2.059h1.144l0.687-3.201l-2.286-1.829l0.229-1.829
			l-2.058-4.571l-0.286-5.345l1.372-2.657l-0.399-4.345l-1.371-2.972l1.371-1.372l-1.371-2.058l0.457-1.829l0.914-6.173l2.973-2.743
			l-0.688-2.059l3.658-5.258l2.743-0.914v-2.516l-0.686-1.372l2.742-5.259l2.744-1.143l0.107-3.412l8.675-0.078l24.088-1.939
			l4.58-0.229l0.009,6.371l0.161,16.651l-0.808,31.038l-0.162,14.064l2.748,18.753L624.559,466.97z"/>
		<path id="AR" fill="#008080" d="M590.952,344.953l-3.849,0.938l-6.173-0.457l0.688-2.973l3.2-2.742l0.457-2.287l-1.828-2.972
			l-10.976,0.457l-20.805,0.915l-23.319,0.686l-23.318,0.457l1.601,6.859v8.23l1.371,10.973l0.229,37.838l2.285,1.943l2.973-1.372
			l2.743,1.144l0.431,10.323l22.886-0.143l18.864-0.802l10.121-0.196l1.146-2.092l-0.286-3.55l-1.825-2.972l1.6-1.485l-1.6-2.512
			l0.685-2.51l1.368-5.604l2.519-2.062l-0.686-2.284l3.657-5.372l2.743-1.368l-0.113-1.494l-0.346-1.824l2.856-5.6l2.403-1.257
			l0.384-3.429l1.771-1.24l0.857-4.234l-1.342-4.011l4.041-2.376l0.551-2.02l1.235-4.269L590.952,344.953z"/>
		<path id="OK" fill="#008080" d="M375.343,322.57l-10.688-0.456l-6.432-0.485l0.259,0.199l-0.704,10.422l21.966,1.407l32.056,1.304
			l-2.335,24.419l-0.457,17.833l0.229,1.6l4.344,3.658l2.058,1.144l0.688-0.229l0.686-2.057l1.371,1.828h2.06v-1.371l2.742,1.371
			l-0.456,3.887l4.114,0.229l2.516,1.145l4.114,0.686l2.516,1.83l2.286-2.059l3.43,0.688l2.515,3.429h0.914v2.286l2.286,0.686
			l2.287-2.286l1.828,0.688h2.516l0.914,2.515l4.801,1.829l1.372-0.687l1.829-4.114h1.144l1.144,2.057l4.115,0.688l3.658,1.371
			l2.972,0.915l1.829-0.915l0.686-2.516h4.345l2.058,0.915l2.744-2.058h1.143l0.688,1.6h4.115l1.6-2.057l1.829,0.457l2.058,2.515
			l3.201,1.829l3.2,0.914l1.941,1.119l-0.39-37.218l-1.372-10.975l-0.161-8.872l-1.438-6.538l-0.778-7.18l-0.067-3.816
			l-12.138,0.319l-46.41-0.457l-45.038-2.058L375.343,322.57z"/>
		<path id="LA" fill="#008080" d="M602.202,472.995l-1.029-2.616l-1.144-3.093l-3.315-3.541l0.916-6.75l-0.118-1.142l-1.262,0.342
			l-8.229,0.913l-25.028,0.459l-0.686-2.396l0.913-8.456l3.315-5.944l5.031-8.691l-0.573-2.398l1.256-0.681l0.459-1.952
			l-2.286-2.056l-0.111-1.942l-1.83-4.346l-0.456-5.941l-9.726,0.113l-19.205,0.915l-22.205,0.028l0.029,9.574l0.686,9.372
			l0.687,3.888l2.516,4.115l0.914,5.028l4.345,5.487l0.229,3.2l0.688,0.687l-0.688,8.459l-2.972,5.029l1.601,2.058l-0.687,2.516
			l-0.687,7.315l-1.372,3.2l0.123,3.617l4.688-1.521l8.083-0.322l10.346,3.557l6.467,1.132l3.718-1.455l3.233,1.132l3.233,0.971
			l0.809-2.103l-3.233-1.132l-2.587,0.485l-2.748-1.617c0,0,0.161-1.293,0.81-1.455c0.646-0.161,3.071-0.97,3.071-0.97l1.777,1.455
			l1.778-0.971l3.232,0.646l1.454,2.425l0.324,2.264l4.526,0.323l1.777,1.778l-0.809,1.616l-1.293,0.809l1.616,1.616l8.405,3.557
			l3.558-1.293l0.97-2.425l2.587-0.647l1.778-1.453l1.293,0.97l0.809,2.91l-2.264,0.808l0.646,0.646l3.396-1.293l2.263-3.396
			l0.81-0.485l-2.103-0.322l0.81-1.616l-0.162-1.455l2.102-0.485l1.133-1.293l0.646,0.809c0,0-0.161,3.071,0.646,3.071
			c0.809,0,4.202,0.646,4.202,0.646l4.042,1.938l0.971,1.455h2.91l1.132,0.972l2.263-3.072v-1.455h-1.293l-3.396-2.748l-5.818-0.809
			l-3.233-2.264l1.132-2.748l2.265,0.323l0.161-0.646l-1.778-0.972v-0.483h3.233l1.777-3.071l-1.293-1.939l-0.323-2.748l-1.455,0.16
			l-1.939,2.103l-0.646,2.587l-3.07-0.646l-0.972-1.777l1.778-1.94l2.021-1.776L602.202,472.995z"/>
		<path id="VA" fill="#008080" d="M828.906,269.246l-0.145-1.947l6.453-2.55l-0.771,3.218l-2.92,3.779l-0.418,4.586l0.462,3.391
			l-1.828,4.978l-2.164,1.916l-1.471-4.641l0.445-5.449l1.587-4.183L828.906,269.246z M831.188,297.547l-58.176,12.576
			l-37.427,5.277l-6.679-0.375l-2.585,1.928l-7.339,0.221l-8.383,0.979l-8.927,0.951l8.48-4.949l-0.014-2.073l1.521-2.146
			l10.554-11.502l3.947,4.479l3.783,0.963l2.543-1.141l2.236-1.312l2.537,1.345l3.914-1.429l1.877-4.557l2.602,0.541l2.854-2.131
			l1.799,0.493l2.827-3.676l0.35-2.083l-0.964-1.276l1.003-1.867l5.273-12.277l0.616-5.735l1.229-0.523l2.179,2.443l3.937-0.301
			l1.93-7.573l2.794-0.561l1.05-2.741l2.58-2.347l1.268-2.342l1.504-3.353l0.085-5.067l9.822,3.823
			c0.681,0.34,0.655-4.784,0.655-4.784l4.051,1.377l-0.462,2.629l8.156,2.939l1.293,1.794l-0.868,3.682l-1.264,1.326l-0.506,1.746
			l0.494,2.403l1.959,1.278l3.918,1.445l2.948,0.968l4.856,0.942l2.152,2.088l3.189,0.402l0.868,1.2l-0.439,4.69l1.374,1.103
			l-0.479,1.931l1.229,0.79l-0.222,1.385l-2.694-0.095l0.09,1.616l2.28,1.543l0.121,1.412l1.773,1.786l0.491,2.524l-2.554,1.381
			l1.572,1.494l5.801-1.686L831.188,297.547z"/>
	</g>
	<g data-which="west">
		<path id="WY" fill="#9EE5CF" d="M354.252,143.776l-10.55-0.807l-32.088-3.295l-16.232-2.058l-28.349-4.115l-19.89-2.972
			l-1.419,11.176l-3.839,24.26l-5.258,30.407l-1.531,10.516l-1.669,11.889l6.523,0.928l25.879,2.5l20.569,2.307l36.784,4.115
			l23.821,2.86l4.504-44.192l1.44-25.377L354.252,143.776z"/>
		<path id="MT" fill="#9EE5CF" d="M356.671,122.274l0.647-11.151l2.259-24.787c0.457-5.029,1.084-8.472,1.371-15.41l0.939-14.552
			l-30.675-2.808l-29.26-3.556l-29.261-4.042l-32.332-5.335l-18.429-3.395l-32.724-6.933l-4.479,21.348l3.429,7.544l-1.372,4.572
			l1.829,4.573l3.201,1.372l4.621,10.77l2.695,3.177l0.457,1.143l3.429,1.143l0.458,2.058l-7.087,17.604v2.515l2.515,3.201h0.914
			l4.801-2.972l0.686-1.143l1.6,0.686l-0.229,5.258l2.744,12.574l2.972,2.515l0.915,0.686l1.829,2.286l-0.457,3.429l0.686,3.43
			l1.143,0.914l2.287-2.286h2.743l3.201,1.601l2.515-0.915h4.115l3.658,1.6l2.744-0.457l0.457-2.972l2.972-0.686l1.372,1.372
			l0.458,3.201l1.779,1.365l1.534-11.565l20.692,2.972l28.188,3.955l16.554,1.897l31.444,3.456l10.99,1.524l1.053-15.428
			L356.671,122.274z"/>
		<path id="ID" fill="#9EE5CF" d="M162.12,180.959c-22.611-4.343-14.147-2.847-21.141-4.351l4.427-17.502l4.344-17.718l1.372-4.229
			l2.515-5.944l-1.257-2.286l-2.515,0.114l-0.8-1.029l0.457-1.143l0.343-3.086l4.458-5.487l1.829-0.458l1.144-1.143l0.571-3.201
			l0.915-0.686l3.887-5.83l3.886-4.344l0.229-3.771l-3.43-2.629l-1.314-4.401l0.4-9.66l3.658-16.46l4.458-20.805l3.772-13.489
			l0.762-3.803l12.996,2.528l-4.158,21.508l2.948,7.705l-1.051,4.572l1.989,4.573l3.201,1.692l4.46,9.807l2.695,3.818l0.618,1.143
			l3.429,1.143l0.458,2.539l-6.927,16.802l0.321,3.317l2.675,2.879l1.877,0.481l4.801-3.614l0.365-0.501l0.156,0.847l0.253,4.135
			l2.583,12.895l3.454,2.676l0.433,0.846l2.15,2.447l-0.778,2.787l0.686,3.75l1.945,0.915l2.126-1.645l2.583-0.481l3.361,1.601
			l2.515-0.594l3.794-0.16l3.979,1.6l2.744-0.297l0.938-2.33l2.491-1.649l0.73,1.693l0.618,2.238l2.308,2.539l-3.772,23.981
			l-5.144,29.009l-4.159-0.319l-8.184-1.532l-9.807-1.829l-12.163-2.378l-12.528-2.504l-8.483-1.84l-9.259-1.668L162.12,180.959z"/>
		<path id="WA" fill="#9EE5CF" d="M93.573,6.362l4.365,1.455l9.7,2.748l8.568,1.94l20.046,5.658l22.956,5.658l15.161,3.395
			l-1.004,3.884l-4.093,13.81l-4.458,20.805l-3.177,16.14l-0.352,9.379l-13.181-3.894l-15.57-3.383l-13.667,0.596l-1.581-1.532
			l-5.326,1.897l-3.977-0.25l-2.721-1.761l-1.579,0.525l-4.205-0.229l-1.875-1.372l-4.777-1.737l-1.442-0.207l-4.986-1.326
			l-1.783,1.508l-5.691-0.343l-4.821-3.794l0.205-0.8l0.068-7.934l-2.125-3.887l-4.115-0.732l-0.365-2.354l-2.514-0.627
			l-2.882-0.535l-1.778,0.97l-2.264-2.91l0.324-2.91l2.748-0.323l1.617-4.042l-2.587-1.132l0.162-3.718l4.365-0.646l-2.749-2.749
			l-1.455-7.113l0.646-2.91v-7.922l-1.778-3.233l2.263-9.376l2.102,0.485l2.425,2.91l2.749,2.586l3.233,1.94l4.527,2.102
			l3.071,0.646l2.91,1.455l3.395,0.97l2.263-0.162v-2.425l1.293-1.131l2.102-1.293l0.323,1.132l0.324,1.778l-2.264,0.485
			l-0.323,2.102l1.778,1.455l1.132,2.425l0.646,1.94l1.455-0.162l0.162-1.293l-0.97-1.293l-0.485-3.233l0.808-1.778l-0.646-1.455
			v-2.263l1.778-3.557l-1.132-2.586L92.12,7.98l0.323-0.809L93.573,6.362z M84.117,12.341l2.021-0.162l0.485,1.374l1.536-1.617
			h2.344l0.809,1.536l-1.536,1.698l0.646,0.808l-0.728,2.021l-1.374,0.404c0,0-0.889,0.081-0.889-0.242
			c0-0.323,1.455-2.586,1.455-2.586l-1.698-0.566l-0.323,1.455l-0.728,0.647l-1.536-2.263L84.117,12.341z"/>
		<path id="CA" fill="#9EE5CF" d="M136.741,386.754l3.815-0.488l1.486-2.012l0.732-1.941l-3.176-0.09l-1.099-1.764l0.778-1.715
			l-0.046-6.15l2.218-1.328l2.697-2.582l0.411-4.916l1.646-3.498l1.943-2.104l3.269-1.715l1.279-0.729l0.756-1.483l-0.868-0.894
			l-0.961-1.51l-0.937-5.35l-2.904-5.236l0.097-2.785l-2.201-3.248l-14.999-23.23l-19.433-28.713l-22.427-33.034l-12.702-19.545
			l1.797-7.208l6.812-25.949l8.116-31.436l-12.365-3.337l-13.489-3.43l-12.574-4.115l-7.544-2.058l-11.431-2.972l-7.051-2.412
			l-1.58,4.725l-0.162,7.437l-5.173,11.801l-3.072,2.587l-0.323,1.131l-1.778,0.809l-1.455,4.203l-0.809,3.233l2.749,4.203
			l1.616,4.204l1.132,3.556l-0.323,6.467l-1.778,3.071l-0.646,5.82l-0.97,3.718l1.778,3.88l2.748,4.526l2.264,4.85l1.293,4.042
			l-0.323,3.233l-0.323,0.485v2.102l5.658,6.305l-0.485,2.425l-0.646,2.263l-0.646,1.94l0.162,8.245l2.102,3.718l1.94,2.586
			l2.748,0.485l0.97,2.749l-1.132,3.557l-2.102,1.616h-1.131l-0.809,3.88l0.485,2.91l3.233,4.365l1.617,5.334l1.455,4.688
			l1.293,3.071l3.395,5.819l1.455,2.588l0.485,2.908l1.617,0.971v2.426l-0.809,1.939l-1.778,7.113l-0.485,1.938l2.425,2.748
			l4.203,0.485l4.527,1.777l3.88,2.102h2.91l2.91,3.071l2.586,4.851l1.131,2.264l3.88,2.102l4.85,0.809l1.455,2.102l0.646,3.234
			l-1.455,0.646l0.323,0.969l3.233,0.809l2.748,0.162l2.91,4.688l3.88,4.203l0.808,2.264l2.586,4.203l0.324,3.232v9.376l0.485,1.779
			l10.023,1.455l19.723,2.747L136.741,386.754z M48.793,337.037l1.293,1.535l-0.162,1.294l-3.233-0.081l-0.566-1.213l-0.646-1.455
			L48.793,337.037z M50.733,337.037l1.212-0.646l3.557,2.103l3.072,1.212l-0.889,0.646l-4.526-0.242l-1.617-1.616L50.733,337.037z
			 M71.426,356.84l1.778,2.346l0.808,0.969l1.536,0.566l0.566-1.455l-0.97-1.779l-2.667-2.02l-1.051,0.161V356.84z M69.971,365.489
			l1.778,3.151l1.212,1.94l-1.455,0.242l-1.293-1.214c0,0-0.728-1.454-0.728-1.858c0-0.403,0-2.183,0-2.183L69.971,365.489z"/>
		<path id="AZ" fill="#9EE5CF" d="M137.747,387.5l-2.627,2.158l-0.323,1.455l0.485,0.971l18.914,10.669l12.125,7.599l14.711,8.567
			l16.812,10.023l12.286,2.425l25.128,2.705l2.531-12.507l3.753-27.243l6.965-52.881l4.257-30.967l-24.597-3.679l-27.206-4.571
			l-33.429-6.319l-2.922,18.092l-0.458,0.457l-1.714,2.629l-2.515-0.113l-1.257-2.744l-2.744-0.343l-0.915-1.144h-0.914
			l-0.915,0.572l-1.943,1.028l-0.114,6.974l-0.229,1.715l-0.571,12.574l-1.486,2.172l-0.571,3.313l2.744,4.916l1.257,5.83l0.8,1.028
			l1.029,0.57l-0.115,2.286l-1.6,1.372l-3.429,1.715l-1.943,1.943l-1.486,3.658l-0.571,4.914l-2.858,2.744l-2.058,0.686l-0.114,5.83
			l-0.458,1.715l0.458,0.801l3.658,0.57l-0.571,2.744l-1.486,2.172L137.747,387.5z"/>
		<path id="NV" fill="#9EE5CF" d="M140.658,177.572l20.98,4.511l9.716,1.943l9.259,1.829l6.615,1.633l-0.559,5.865l-3.543,17.329
			l-4.093,19.98l-1.943,9.719l-2.172,13.282l-3.155,16.415l-3.521,15.685l-1.968,10.181l-2.466,16.771l-0.457,1.1l-1.073,2.469
			l-1.873-0.114l-1.097-2.744l-2.743-0.503l-1.396-0.982l-2.038,0.321l-0.915,0.731l-1.302,1.351l-0.435,6.974l-0.55,1.715
			l-0.411,12.092l-1.322,1.715l-1.876-2.262l-14.518-22.748l-19.433-29.035l-22.748-33.836L77.24,230.373l1.636-6.566l6.973-25.949
			l7.888-31.348l33.607,8.143l13.717,2.972"/>
		<path id="UT" fill="#9EE5CF" d="M252.971,309.307l-24.643-3.473l-26.564-4.895l-33.827-6.02l1.588-9.157l3.201-15.203
			l3.315-16.575l2.172-13.603l1.943-8.917l3.772-20.461l3.543-17.49l1.115-5.573l12.717,2.258l12.002,2.058l10.288,1.829
			l8.345,1.372l3.678,0.479l-1.485,10.63l-2.312,13.173l7.808,0.928l16.407,1.805l8.211,0.856l-2.13,21.968l-3.201,22.566
			l-3.753,27.826l-1.666,11.108L252.971,309.307z"/>
		<path id="CO" fill="#9EE5CF" d="M378.621,256.796l1.438-21.282l-32.095-3.064l-24.463-2.7l-37.266-4.115l-20.69-2.515
			l-2.629,22.176l-3.201,22.405l-3.753,27.987l-1.505,11.108l-0.25,2.763l33.926,3.795l37.74,4.268l31.961,3.166l16.608,0.846"/>
		<path id="NM" fill="#9EE5CF" d="M282.724,431.045l-0.65-6.123l8.644,0.525l29.518,3.063l28.393,1.439l1.966-22.332l3.727-55.876
			l1.119-19.391l2.014,0.351l-0.015-11.074l-32.203-2.403l-36.938-4.427l-34.465-4.114l-4.2,30.758l-6.965,53.201l-3.752,26.923
			l-2.049,13.309l15.46,1.989l1.293-10.022l16.651,2.586L282.724,431.045z"/>
		<path id="OR" fill="#9EE5CF" d="M140.306,176.686l4.298-17.9l4.665-17.879l1.051-4.229l2.354-5.623l-0.615-1.163l-2.515-0.046
			l-1.282-1.67l0.458-1.464l0.503-3.247l4.458-5.487l1.829-1.099l1.143-1.143l1.486-3.566l4.047-5.669l3.565-3.862l0.229-3.451
			l-3.269-2.469l-1.209-4.51l-13.238-3.745l-15.089-3.543l-15.432,0.114l-0.458-1.372l-5.487,2.058l-4.458-0.572l-2.401-1.6
			l-1.257,0.686l-4.687-0.229l-1.715-1.372l-5.258-2.058l-0.8,0.114l-4.344-1.486l-1.943,1.829l-6.173-0.343l-5.944-4.115l0.686-0.8
			L73.732,68l-2.286-3.887l-4.115-0.572l-0.686-2.515l-2.354-0.466l-5.799,2.059l-2.263,6.466l-3.233,10.023l-3.233,6.466
			L44.752,99.64l-6.467,13.58l-8.083,12.61l-1.94,2.91l-0.808,8.568l-1.293,5.981l2.708,3.527l6.729,2.251l11.592,3.293l7.866,2.539
			l12.414,3.634l13.328,3.59l13.168,3.565"/>
	</g>
	<g data-which="midwest">
		<path id="OH" fill="#60C6C1" d="M731.436,195.008l-6.093,4.053l-3.88,2.263l-3.396,3.718l-4.041,3.88l-3.233,0.808l-2.91,0.485
			l-5.496,2.586l-2.102,0.162l-3.396-3.072l-5.174,0.647l-2.586-1.455l-2.382-1.351l-4.893,0.703l-10.186,1.617l-7.76,1.212
			l1.294,14.63l1.778,13.741l2.586,23.441l0.565,4.831l4.122-0.129l2.425-0.809l3.364,1.503l2.07,4.365l5.139-0.017l1.893,2.119
			l1.762-0.065l2.538-1.341l2.504,0.372l1.975,1.455l1.728-2.132l2.346-1.293l2.07-0.681l0.646,2.748l1.778,0.97l3.476,2.344
			l2.184-0.081l1.146-1.149l-0.064-1.387l1.616-1.455l0.162-5.012l0.971-3.88l1.52-1.441l1.521,0.905l0.824,1.211l1.211-0.176
			l-0.423-2.411l-0.562-0.643v-2.425l0.97-1.293l2.263-3.395l1.294-1.455l2.103,0.485l2.263-1.617l3.072-3.395l2.263-3.88
			l0.21-5.431l0.485-5.011v-4.688l-1.132-3.071l0.97-1.455l0.921-0.955l-1.405-9.843L731.436,195.008z"/>
		<path id="MI" fill="#60C6C1" d="M581.619,82.059l1.829-2.058l2.172-0.8l5.373-3.887l2.286-0.571l0.457,0.457l-5.145,5.144
			l-3.314,1.943l-2.059,0.915L581.619,82.059z M667.794,114.187l0.646,2.506l3.232,0.162l1.293-1.212c0,0-0.081-1.455-0.403-1.617
			c-0.323-0.162-1.616-1.859-1.616-1.859l-2.184,0.243l-1.616,0.161l-0.322,1.132L667.794,114.187z M697.86,177.237l-3.233-8.245
			l-2.264-9.053l-2.425-3.233l-2.587-1.778l-1.616,1.132l-3.88,1.778l-1.939,5.011l-2.748,3.718l-1.132,0.646l-1.455-0.646
			c0,0-2.587-1.455-2.425-2.102c0.161-0.646,0.483-5.012,0.483-5.012l3.396-1.293l0.808-3.395l0.647-2.586l2.425-1.617
			l-0.323-10.023l-1.617-2.263l-1.293-0.809l-0.809-2.102l0.809-0.808l1.616,0.323l0.162-1.617L676.036,131l-1.294-2.586h-2.586
			l-4.526-1.455l-5.497-3.395h-2.748l-0.646,0.647l-0.971-0.485l-3.071-2.264l-2.909,1.778l-2.91,2.263l0.323,3.557l0.97,0.323
			l2.103,0.485l0.484,0.809l-2.587,0.808l-2.586,0.324l-1.455,1.778l-0.323,2.102l0.323,1.617l0.323,5.497l-3.558,2.102
			l-0.646-0.162v-4.203l1.293-2.425l0.646-2.425l-0.809-0.808l-1.939,0.808l-0.971,4.204l-2.748,1.131l-1.777,1.94l-0.162,0.97
			l0.646,0.809l-0.646,2.586l-2.264,0.485v1.132l0.809,2.425l-1.131,6.143l-1.617,4.042l0.646,4.688l0.485,1.131l-0.809,2.425
			l-0.323,0.809l-0.323,2.748l3.557,5.981l2.91,6.466l1.455,4.85l-0.809,4.688l-0.97,5.981l-2.426,5.173l-0.323,2.748l-3.26,3.085
			l4.409-0.162l21.418-2.264l7.278-0.987l0.097,1.667l6.853-1.212l10.298-1.503l3.854-0.461l0.139-0.587l0.161-1.455l2.103-3.718
			l2-1.738l-0.222-5.052l1.597-1.597l1.091-0.343l0.222-3.557l1.536-3.031l1.052,0.606l0.161,0.646l0.809,0.162l1.939-0.97
			L697.86,177.237z M567.492,111.213l0.716-0.581l2.749-0.809l3.556-2.263v-0.97l0.647-0.646l5.98-0.97l2.426-1.94l4.363-2.102
			l0.162-1.293l1.939-2.91l1.777-0.808l1.295-1.778l2.263-2.264l4.365-2.425l4.688-0.485l1.132,1.132l-0.322,0.97l-3.719,0.97
			l-1.455,3.071l-2.264,0.809l-0.484,2.425l-2.425,3.233l-0.323,2.587l0.809,0.485l0.97-1.132l3.558-2.91l1.294,1.293h2.263
			l3.232,0.97l1.455,1.132l1.455,3.071l2.748,2.748l3.88-0.161l1.455-0.97l1.616,1.293l1.617,0.485l1.293-0.808h1.132l1.616-0.97
			l4.042-3.557l3.396-1.131l6.628-0.323l4.525-1.94l2.587-1.293l1.455,0.162v5.658l0.484,0.323l2.91,0.808l1.938-0.485l6.145-1.617
			l1.132-1.131l1.455,0.485v6.951l3.231,3.072l1.294,0.646l1.293,0.97l-1.293,0.323l-0.809-0.323l-3.718-0.485l-2.103,0.647
			l-2.264-0.162l-3.233,1.455h-1.777l-5.819-1.293l-5.173,0.162l-1.94,2.586l-6.95,0.647l-2.426,0.808l-1.132,3.072l-1.293,1.131
			l-0.484-0.162l-1.455-1.617l-4.526,2.425h-0.646l-1.133-1.617l-0.809,0.162l-1.939,4.365l-0.97,4.042l-3.182,7l-1.178-1.034
			l-1.37-1.031l-1.941-10.288l-3.544-1.37l-2.053-2.286l-12.12-2.744l-2.855-1.029l-8.229-2.173l-7.892-1.143L567.492,111.213z"/>
		<path id="ND" fill="#60C6C1" d="M471.306,127.668l-0.364-7.496l-1.989-7.316l-1.829-13.649l-0.457-9.831l-1.99-3.108l-1.6-5.351
			V70.629l0.686-3.887l-2.114-5.499l-28.425-0.564l-18.591-0.646l-26.513-1.293l-24.946-1.884l-1.261,14.23l-1.371,15.089
			l-2.259,24.947l-0.486,11.021l56.816,3.764L471.306,127.668z"/>
		<path id="SD" fill="#60C6C1" d="M472.797,203.181l-0.953-1.081l-1.521-3.627l1.829-3.702l1.051-5.555l-2.583-2.058l-0.297-2.744
			l0.594-2.996l2.15-0.802l0.297-5.735l-0.068-30.086l-0.618-2.972l-4.115-3.59l-0.981-1.989v-1.921l1.896-1.279l1.532-1.854
			l0.184-2.719l-57.384-1.6l-56.174-3.887l-0.767,5.279l-1.613,15.868l-1.345,17.947l-1.602,24.597l16.027,1.029l19.638,1.143
			l17.993,1.303l23.776,1.304l10.745-0.778l2.859,2.287l4.319,2.972l0.983,0.754l3.541-0.891l4.047-0.297l2.743-0.068l3.112,1.211
			l4.548,1.439l3.134,1.761l0.617,1.921l0.914,1.897l0.706-0.481H472.797z"/>
		<path id="NE" fill="#60C6C1" d="M484.244,246.99l1.372,2.675l0.093,2.126l2.354,3.726l2.721,3.152h-5.05l-43.482-0.939
			l-40.787-0.89l-21.19-0.961l1.072-21.328l-33.379-2.744l4.344-44.01l15.547,1.029l20.118,1.143l17.832,1.143l23.777,1.143
			l10.745-0.457l2.058,2.286l4.802,2.972l1.144,0.915l4.344-1.372l3.888-0.458l2.742-0.229l1.829,1.372l5.029,1.601l2.973,1.6
			l0.457,1.601l0.915,2.058h1.828l0.799,0.046l0.982,5.212l2.743,8.026l1.234,4.641l2.126,3.818l0.525,4.938l1.439,4.276l0.55,6.469
			"/>
		<path id="IA" fill="#60C6C1" d="M566.594,201.628l0.17,1.942l2.287,1.14l1.142,1.257l0.344,1.262l3.887,3.202l0.688,2.173
			l-0.801,2.862l-1.487,3.544l-0.8,2.742l-2.174,1.603l-1.715,0.572l-5.484,1.485l-0.688,2.283l-0.799,2.285l0.572,1.372
			l1.716,1.714l-0.002,3.661l-2.169,1.601l-0.459,1.487v2.517l-1.489,0.457l-1.714,1.37l-0.455,1.485l0.455,1.717l-1.374,1.205
			l-2.294-2.691l-1.483-2.626l-8.341,0.799l-10.171,0.571l-25.036,0.688l-13.035,0.229l-9.374,0.229l-1.314,0.122l-1.654-4.472
			l-0.229-6.63l-1.602-4.115l-0.686-5.258l-2.287-3.658l-0.914-4.801l-2.743-7.544l-1.145-5.373l-1.371-2.172l-1.601-2.744
			l1.829-4.344l1.371-5.716l-2.743-2.058l-0.457-2.743l0.914-2.515h1.715h11.545l49.611-0.686l19.877-0.686l1.852,2.747l1.832,2.622
			l0.455,0.804l-1.83,2.749l0.455,4.222l2.516,3.886l2.969,1.824l2.405,0.23L566.594,201.628z"/>
		<path id="IN" fill="#60C6C1" d="M618.421,300.855l0.064-2.859l0.484-4.526l2.265-2.91l1.777-3.88l2.586-4.203l-0.483-5.82
			l-1.778-2.748l-0.323-3.233l0.809-5.496l-0.484-6.952l-1.294-16.004l-1.293-15.358l-0.971-11.72l3.07,0.889l1.455,0.97
			l1.132-0.323l2.103-1.94l2.829-1.617l5.093-0.162l21.986-2.263l5.574-0.533l1.505,15.957l4.251,36.841l0.599,5.771l-0.372,2.263
			l1.229,1.795l0.096,1.373l-2.521,1.6l-3.54,1.551l-3.201,0.55l-0.6,4.867l-4.574,3.312l-2.797,4.01l0.323,2.377l-0.581,1.534
			h-3.326l-1.586-1.617l-2.493,1.262l-2.683,1.503l0.161,3.054l-1.193,0.258l-0.468-1.018l-2.167-1.503l-3.25,1.341l-1.552,3.007
			l-1.438-0.81l-1.455-1.598l-4.465,0.483l-5.593,0.97L618.421,300.855z"/>
		<path id="IL" fill="#60C6C1" d="M617.805,301.602v-3.604l0.258-4.866l2.378-3.137l1.777-3.766l2.587-3.863l-0.372-5.252
			l-2.005-3.542l-0.097-3.347l0.695-5.27l-0.825-7.178l-1.066-15.778l-1.294-15.017l-0.922-11.639l-0.271-0.921l-0.81-2.587
			l-1.293-3.718l-1.617-1.778l-1.454-2.587l-0.232-5.489l-9.903,1.312l-27.206,1.715l-8.688-0.429l0.229,2.372l2.286,0.686
			l0.915,1.143l0.457,1.829l3.887,3.429l0.687,2.286l-0.687,3.429l-1.829,3.658l-0.687,2.515l-2.286,1.829l-1.829,0.686
			l-5.258,1.372l-0.687,1.829l-0.687,2.058l0.687,1.372l1.828,1.6l-0.229,4.115l-1.828,1.601l-0.688,1.601v2.743l-1.828,0.457
			l-1.601,1.144l-0.229,1.372l0.229,2.058l-1.715,1.314l-1.029,2.801l0.457,3.658l2.287,7.316l7.315,7.545l5.486,3.658l-0.229,4.344
			l0.914,1.372l6.4,0.457l2.743,1.372l-0.686,3.658l-2.286,5.944l-0.686,3.201l2.285,3.886l6.401,5.259l4.572,0.687l2.058,5.029
			l2.059,3.2l-0.914,2.973l1.6,4.115l1.829,2.058l1.944-0.791l0.687-2.164l2.037-1.438l3.236-1.101l3.088,1.18l2.876,1.066
			l0.791-0.211l-0.065-1.242l-1.065-2.765l0.438-2.377l2.28-1.567l2.358-0.987l1.163-0.421l-0.582-1.323l-0.76-2.166l1.245-1.263
			L617.805,301.602z"/>
		<path id="MN" fill="#60C6C1" d="M471.879,128.471l-0.457-8.459l-1.829-7.316l-1.829-13.489l-0.457-9.831l-1.829-3.429l-1.601-5.03
			V70.629l0.688-3.887l-1.821-5.452l30.133,0.035l0.323-8.245l0.646-0.162l2.264,0.485l1.939,0.809l0.81,5.497l1.453,6.143
			l1.617,1.616h4.851l0.322,1.455l6.306,0.323v2.102h4.85l0.323-1.293l1.132-1.132l2.264-0.646l1.293,0.97h2.91l3.88,2.587
			l5.335,2.425l2.426,0.485l0.483-0.97l1.455-0.485l0.485,2.91l2.587,1.293l0.483-0.485l1.293,0.162v2.102l2.588,0.97h3.07
			l1.617-0.809l3.233-3.233l2.586-0.485l0.809,1.778l0.485,1.293h0.97l0.97-0.808l8.893-0.323l1.777,3.071h0.646l0.714-1.084
			l4.439-0.371l-0.612,2.28l-3.938,1.837l-9.245,4.062l-4.774,2.007l-3.071,2.587l-2.425,3.556l-2.264,3.88l-1.778,0.809
			l-4.526,5.011l-1.293,0.162l-3.842,2.934l-2.815,3.161l-0.229,2.97l0.228,7.778l-1.598,1.6l-5.259,4.114l-1.832,5.717l2.52,3.648
			l0.458,2.52l-1.147,2.974l-0.228,3.659l0.458,7.084l3.426,4.107h2.976l2.51,2.293l3.202,1.365l3.659,5.035l7.088,5.023l1.83,2.062
			l0.234,5.502l-20.588,0.686l-60.249,0.459l-0.338-35.677l-0.457-2.972l-4.115-3.429l-1.145-1.829v-1.601l2.059-1.6l1.372-1.372
			L471.879,128.471z"/>
		<path id="WI" fill="#60C6C1" d="M612.941,197.181l0.369-2.97l-1.615-4.527l-0.646-6.143l-1.132-2.425l0.97-3.071l0.81-2.91
			l1.455-2.586l-0.647-3.395l-0.646-3.557l0.484-1.778l1.939-2.425l0.162-2.748l-0.81-1.293l0.646-2.586l0.484-3.233l2.748-5.658
			l2.91-6.79l0.161-2.263l-0.323-0.97l-0.808,0.485l-4.203,6.305l-2.749,4.042l-1.939,1.778l-0.809,2.263l-1.455,0.808l-1.131,1.94
			l-1.455-0.323l-0.162-1.778l1.294-2.425l2.103-4.688l1.776-1.617l1.103-2.292l-1.631-0.905l-1.371-1.372l-1.602-10.288
			l-3.658-1.144l-1.371-2.286l-12.573-2.743l-2.517-1.143l-8.229-2.287l-8.229-1.143l-4.17-5.405l-0.528,1.261l-1.133-0.162
			l-0.646-1.132l-2.748-0.808l-1.132,0.162l-1.778,0.97l-0.97-0.647l0.646-1.94l1.939-3.071l1.132-1.132l-1.938-1.455l-2.103,0.808
			l-2.91,1.94l-7.437,3.233l-2.91,0.646l-2.909-0.485l-0.981-0.878l-2.116,2.835l-0.229,2.744v8.459l-1.144,1.601l-5.258,3.886
			l-2.286,5.944l0.457,0.229l2.515,2.058l0.687,3.201l-1.829,3.201v3.887l0.458,6.63l2.972,2.972h3.43l1.829,3.201l3.43,0.458
			l3.887,5.715l7.088,4.115l2.057,2.744l0.915,7.43l0.687,3.315l2.286,1.601l0.229,1.372l-2.058,3.429l0.229,3.201l2.516,3.887
			l2.515,1.143l2.972,0.458l1.344,1.38h9.174l26.065-1.487L612.941,197.181z"/>
		<path id="MO" fill="#60C6C1" d="M555.789,249.527l-2.521-3.087l-1.143-2.286l-7.773,0.686l-9.83,0.457l-25.378,0.915
			l-13.487,0.229l-7.889,0.115l-2.285,0.114l1.257,2.515l-0.229,2.286l2.516,3.887l3.087,4.115l3.086,2.743l2.286,0.229l1.372,0.915
			v2.972l-1.829,1.601l-0.457,2.286l2.058,3.43l2.515,2.972l2.516,1.829l1.372,11.66l-0.687,35.324l0.229,4.687l0.457,5.384
			l23.433-0.117l23.206-0.686l20.805-0.801l11.655-0.23l2.169,3.426l-0.684,3.307l-3.088,2.404l-0.572,1.838l5.379,0.457
			l3.896-0.688l1.718-5.493l0.65-5.856l2.318-2.024l1.713-1.485l2.058-1.029l0.114-2.861l0.574-1.715l-1.031-1.748l-2.745,0.145
			l-2.169-2.625l-1.374-4.229l0.803-2.52l-1.944-3.428l-1.831-4.574l-4.799-0.801l-6.969-5.6l-1.721-4.113l0.801-3.201l2.06-6.058
			l0.459-2.864l-1.949-1.031l-6.854-0.798l-1.028-1.712l-0.111-4.23l-5.486-3.431l-6.977-7.771l-2.286-7.316l-0.229-4.225
			L555.789,249.527z"/>
		<path id="KS" fill="#60C6C1" d="M503.381,325.131l-12.618,0.204l-46.09-0.458l-44.557-2.057l-24.63-1.258l4.144-64.721l21.833,0.8
			l40.466,1.372l44.125,0.458h5.097l3.247,3.225l2.768,0.229l0.89,1.075v2.009l-1.828,1.601l-0.457,2.607l2.219,3.59l2.515,3.133
			l2.515,1.989l1.052,11.178L503.381,325.131z"/>
	</g>
	<g data-which="east">
		<path id="RI" fill="#19493C" d="M874.07,179.823l-0.483-4.204l-0.809-4.365l-1.697-5.901l5.739-1.536l1.615,1.131l3.396,4.365
			l2.908,4.446l-2.91,1.536l-1.294-0.162l-1.132,1.778l-2.425,1.94L874.07,179.823z"/>
		<path id="path3053" inkscape:connector-curvature="0" fill="#19493C" d="M825.699,255.056c-0.182-0.291-1.098-3.883-2.036-7.983
			c-0.94-4.1-2.492-9.577-3.449-12.172l-1.74-4.719l1.274-1.146c2.64-2.374,2.888-2.285,2.454,0.869
			c-0.462,3.359,0.632,6.188,2.639,6.825c1.095,0.348,4.585,6.496,4.606,8.114c0.008,0.609,3.681,3.193,4.538,3.193
			c0.272,0,0.817,1.072,1.211,2.383c0.393,1.31,0.844,2.722,1.003,3.136C836.727,254.932,826.521,256.389,825.699,255.056
			L825.699,255.056z"/>
<!-- 		<g>
 -->		<path id="CT" fill="#19493C" d="M873.193,180.05l-0.628-4.204l-0.809-4.365l-1.617-5.981l-4.15,0.905l-21.824,4.769l0.646,3.314
				l1.455,7.275v8.083l-1.132,2.263l1.832,2.109l4.956-3.401l3.557-3.233l1.939-2.102l0.809,0.647l2.748-1.455l5.174-1.132
				L873.193,180.05z"/>
			<path id="MA" fill="#19493C" d="M899.977,173.851l2.174-0.686l0.457-1.715l1.027,0.114l1.029,2.286l-1.258,0.458l-3.888,0.114
				L899.977,173.851z M890.604,174.651l2.286-2.629h1.602l1.829,1.486l-2.4,1.029l-2.172,1.029L890.604,174.651z M855.805,152.663
				l17.459-4.203l2.265-0.646l2.102-3.233l3.736-1.663l2.89,4.413l-2.425,5.173l-0.324,1.455l1.94,2.586l1.132-0.809h1.778
				l2.263,2.587l3.88,5.981l3.557,0.485l2.265-0.97l1.777-1.778l-0.809-2.749l-2.102-1.617l-1.455,0.809l-0.971-1.293l0.484-0.485
				l2.102-0.162l1.778,0.808l1.94,2.425l0.97,2.91l0.323,2.425l-4.203,1.455l-3.88,1.94l-3.88,4.526l-1.939,1.455v-0.97l2.425-1.455
				l0.484-1.778l-0.809-3.072l-2.909,1.455l-0.81,1.455l0.485,2.263l-2.066,1l-2.747-4.527l-3.395-4.365l-2.071-1.812l-6.533,1.876
				l-5.092,1.051l-21.824,4.769l-0.401-4.944l0.646-10.589l5.173-0.889L855.805,152.663z"/>
			<path id="ME" fill="#19493C" d="M923.215,77.331l1.939,2.102l2.264,3.718v1.94l-2.102,4.688l-1.94,0.647l-3.395,3.071
				l-4.851,5.497c0,0-0.646,0-1.293,0c-0.646,0-0.971-2.102-0.971-2.102l-1.778,0.162l-0.97,1.455l-2.425,1.455l-0.971,1.455
				l1.616,1.455l-0.483,0.646l-0.485,2.749l-1.94-0.162v-1.617l-0.322-1.293l-1.454,0.323l-1.778-3.233l-2.102,1.293l1.293,1.455
				l0.323,1.132l-0.81,1.293l0.323,3.072l0.162,1.617l-1.616,2.586l-2.91,0.485l-0.323,2.91l-5.335,3.071l-1.293,0.485l-1.617-1.455
				l-3.07,3.556l0.97,3.233l-1.455,1.293l-0.161,4.365l-1.124,6.259l-2.462-1.156l-0.485-3.072l-3.879-1.131l-0.323-2.749
				l-7.274-23.441l-4.198-13.64l1.42-0.118l1.515,0.41v-2.587l0.809-5.496l2.587-4.688l1.455-4.042l-1.94-2.425v-5.98l0.81-0.97
				l0.809-2.749l-0.161-1.455l-0.161-4.85l1.777-4.85l2.909-8.892l2.103-4.203h1.294l1.293,0.162v1.132l1.293,2.263l2.748,0.646
				l0.809-0.808v-0.97l4.042-2.91l1.778-1.778l1.454,0.162l5.98,2.425l1.94,0.97l9.053,29.907h5.981l0.809,1.94l0.161,4.85
				l2.91,2.263h0.809l0.161-0.485l-0.484-1.132L923.215,77.331z M902.283,107.479l1.535-1.536l1.375,1.051l0.564,2.425l-1.697,0.889
				L902.283,107.479z M908.992,101.578l1.777,1.859c0,0,1.294,0.081,1.294-0.242c0-0.323,0.241-2.021,0.241-2.021l0.891-0.808
				l-0.81-1.778l-2.021,0.728L908.992,101.578z"/>
			<path id="NH" fill="#19493C" d="M880.799,142.425l0.869-1.077l1.09-3.291l-2.543-0.914l-0.483-3.071l-3.881-1.132l-0.322-2.748
				l-7.275-23.441l-4.602-14.543l-0.896-0.005l-0.646,1.617l-0.646-0.485l-0.971-0.97l-1.455,1.94l-0.048,5.032l0.312,5.667
				l1.939,2.748v4.042l-3.718,5.063l-2.587,1.131v1.132l1.132,1.778v8.568l-0.81,9.215l-0.161,4.85l0.971,1.293l-0.161,4.526
				l-0.485,1.778l1.455,0.886l16.39-4.69l2.265-0.646l1.534-2.552L880.799,142.425z"/>
			<path id="VT" fill="#19493C" d="M844.344,153.727l-0.809-5.658l-2.392-9.972l-0.646-0.323l-2.91-1.293l0.81-2.91l-0.81-2.102
				l-2.7-4.64l0.971-3.88l-0.809-5.173l-2.425-6.466l-0.806-4.922l26.247-6.748l0.323,5.819l1.94,2.749v4.042l-3.719,4.042
				l-2.586,1.131v1.132l1.132,1.778v8.568l-0.81,9.215l-0.162,4.85l0.972,1.293l-0.162,4.526l-0.485,1.778l0.661,1.567l-6.951,1.374
				L844.344,153.727z"/>
			<path id="path3047" inkscape:connector-curvature="0" fill="#19493C" d="M843.942,203.027c-0.442-0.532-0.537-2.032-0.284-4.457
				c0.354-3.397,0.287-3.713-0.954-4.469c-0.735-0.448-3.282-1.3-5.659-1.894c-2.378-0.594-5.486-1.73-6.908-2.524
				c-1.421-0.795-3.158-1.445-3.86-1.445c-1.253,0-3.8-2.161-3.806-3.23c-0.002-0.299-0.274-1.523-0.607-2.72
				c-0.526-1.898-0.828-2.177-2.348-2.177c-1.115,0-2.201-0.513-3.021-1.426l-1.278-1.425l-9.922,2.256
				c-9.845,2.239-53.754,11.204-57.786,11.799l-2.102,0.31l-0.35-2.939l-0.348-2.938l3.757-3.559
				c2.065-1.957,3.756-3.775,3.756-4.041s0.784-1.472,1.742-2.682s1.741-2.476,1.741-2.814c0-1.386-1.411-3.573-2.306-3.573
				c-0.665,0-1.188-0.898-1.711-2.938c-0.931-3.628-0.623-3.937,6.049-6.1c5.87-1.903,12.026-2.423,14.754-1.248
				c1.848,0.797,2.164,0.762,4.729-0.526c1.513-0.759,3.756-1.386,4.986-1.394c2.591-0.015,3.987-1.026,6.195-4.486
				c0.866-1.357,1.95-2.468,2.41-2.468c0.459,0,1.501-0.303,2.312-0.673c1.753-0.799,1.949-2.713,0.504-4.919
				c-0.78-1.191-0.838-1.707-0.29-2.584c0.993-1.591,0.84-2.854-0.348-2.854c-1.657,0-3.612-1.696-3.612-3.134
				c0-0.862,1.169-2.433,3.338-4.484c1.837-1.737,4.237-4.791,5.335-6.788c2.61-4.747,6.813-9.923,9.178-11.304
				c2.407-1.406,7.322-2.717,10.309-2.75c1.277-0.014,4.804-0.771,7.838-1.683l5.517-1.658l0.369,2.692
				c0.204,1.481,0.902,4.129,1.552,5.886c1.527,4.133,1.994,7.404,1.364,9.58c-0.408,1.413-0.182,2.369,1.203,5.063
				c1.251,2.434,1.608,3.769,1.338,4.998c-0.321,1.469-0.15,1.767,1.383,2.402c0.963,0.399,1.879,1.154,2.035,1.679
				c2.42,8.1,2.545,9.152,2.229,18.733c-0.287,8.762-0.192,10.065,1.219,16.625c1.606,7.472,1.968,13.914,0.894,15.923
				c-0.518,0.964-0.396,1.522,0.63,2.909c1.165,1.576,1.192,1.8,0.349,2.734c-0.507,0.56-0.921,1.324-0.921,1.698
				c0,1.397,2.159,0.605,4.284-1.57c2.027-2.076,2.357-2.214,4.275-1.782c1.761,0.396,2.706,0.155,6.192-1.582
				c2.264-1.128,5.052-2.949,6.195-4.047c1.877-1.802,2.24-1.936,3.722-1.372l1.644,0.625l-1.98,2.053
				c-3.599,3.731-11.896,9.494-15.411,10.705C845.932,203.63,844.662,203.896,843.942,203.027L843.942,203.027L843.942,203.027z"/>
			<path id="path3049" inkscape:connector-curvature="0" fill="#19493C" d="M836.073,241.539l0.396-2.726l-2.201-0.413
				c-4.3-0.807-9.101-3.724-10.488-6.374c-1.067-2.035-0.224-4.583,1.896-5.724c1.066-0.575,2.249-1.792,2.628-2.706
				c0.378-0.914,1.703-2.646,2.944-3.85c1.24-1.204,2.256-2.581,2.255-3.06c0-0.479-1.184-1.619-2.631-2.533
				c-1.446-0.914-3.011-2.397-3.477-3.297c-0.465-0.9-1.419-1.719-2.118-1.822c-1.812-0.265-2.55-3.164-1.015-3.986
				c1.261-0.674,1.517-3.402,0.422-4.496c-0.533-0.534-0.401-1.205,0.581-2.953c0.699-1.244,1.271-2.859,1.271-3.589
				c0-0.73,0.423-1.794,0.938-2.365c0.902-0.997,1.023-0.996,3.048,0.021c1.16,0.582,3.546,1.38,5.303,1.773
				c1.756,0.393,4.015,0.993,5.018,1.334l1.825,0.62l-0.104,4.534c-0.094,4.102-0.258,4.694-1.728,6.229
				c-1.848,1.929-1.371,2.61,1.293,1.846c1.473-0.422,1.923-0.335,2.332,0.452c0.664,1.279,1.252,6.347,1.324,11.426
				c0.064,4.515-1.491,9.168-4.783,14.298c-0.991,1.545-1.94,3.843-2.11,5.107c-0.19,1.425-0.86,2.809-1.763,3.639l-1.454,1.34
				L836.073,241.539L836.073,241.539z"/>
			<path id="path3051" inkscape:connector-curvature="0" fill="#19493C" d="M741.527,242.133c-0.135-0.425-0.936-4.56-1.779-9.19
				c-0.844-4.63-2.068-10.508-2.722-13.063c-0.652-2.555-1.896-9.148-2.762-14.653l-1.572-10.008l2.362-1.568
				c1.301-0.863,3.735-2.882,5.411-4.486l3.048-2.918v3.635v3.635l2.179-0.36c4.117-0.682,51.535-10.272,60.077-12.151
				c8.199-1.804,8.593-1.838,9.495-0.84c0.519,0.573,1.665,1.2,2.55,1.395c1.163,0.255,1.9,1.006,2.677,2.725
				c1.577,3.498,3.044,5.116,4.638,5.116c1.713,0,1.79,0.636,0.248,2.032c-0.639,0.578-1.161,1.711-1.161,2.519
				c0,0.808-0.552,2.608-1.227,4.001c-1.091,2.254-1.132,2.643-0.366,3.522c0.946,1.087,0.709,2.387-0.616,3.363
				c-0.63,0.464-0.752,1.199-0.46,2.758c0.33,1.755,0.645,2.125,1.812,2.125c0.987,0,1.515,0.399,1.745,1.323
				c0.184,0.728,1.54,2.099,3.017,3.048c1.476,0.949,2.951,1.904,3.277,2.122c0.352,0.234-0.466,1.576-1.986,3.267
				c-1.422,1.579-3.017,3.506-3.543,4.282c-0.527,0.776-2.062,1.774-3.407,2.219c-1.346,0.444-3.024,1.262-3.73,1.817
				c-0.815,0.643-5.8,1.871-13.72,3.382c-6.841,1.305-20.668,4.041-30.726,6.08c-10.06,2.039-20.771,4.004-23.805,4.368
				c-3.033,0.363-6.233,0.8-7.112,0.97C742.329,242.797,741.688,242.636,741.527,242.133L741.527,242.133L741.527,242.133z"/>
			<path id="path3055" inkscape:connector-curvature="0" fill="#19493C" d="M812.023,265.682c-1.438-0.434-3.69-0.793-5.009-0.798
				c-6.545-0.024-8.271-1.727-6.12-6.033c0.691-1.387,1.259-2.962,1.259-3.502s0.392-1.737,0.869-2.662
				c0.816-1.579,0.792-1.736-0.419-2.584c-1.596-1.116-2.555-1.148-2.957-0.097c-0.263,0.68-0.812,0.666-3.547-0.096
				c-2.771-0.771-3.235-1.099-3.235-2.286c0-1.047-0.521-1.603-2.133-2.277c-1.174-0.49-2.612-1.501-3.199-2.246
				c-1.244-1.582-5.975-4.351-7.432-4.351c-0.553,0-2.24,0.945-3.754,2.1c-2.221,1.695-3.104,2.042-4.6,1.799
				c-1.606-0.261-2.019-0.046-3.111,1.622c-0.717,1.093-1.961,2.091-2.886,2.313c-0.894,0.215-2.572,1.524-3.729,2.909l-2.104,2.518
				l-0.796-4.453c-0.438-2.449-0.798-4.708-0.8-5.021s13.24-3.19,29.432-6.396l29.436-5.83l2.024,5.816
				c1.114,3.199,2.442,7.775,2.952,10.17c0.511,2.395,1.317,5.726,1.794,7.402l0.866,3.048l3.611-0.014
				c1.987-0.008,4.594-0.242,5.79-0.52l2.178-0.506v2.242c0,3.97-1.406,5.941-5.358,7.512l-3.511,1.394l-1.902-2.265
				c-1.773-2.115-2.088-2.256-4.709-2.129s-2.896,0.002-4.164-1.883c-1.357-2.021-1.344-3.69,0.047-5.429
				c0.874-1.092-0.604-2.707-1.67-1.823c-0.636,0.527-0.794,0.368-0.794-0.802c0-0.803,0.393-1.611,0.871-1.794
				c1.489-0.572,0.901-6.176-0.647-6.176c-1.144,0-0.995-1.559,0.424-4.492c0.676-1.395,1.092-2.672,0.927-2.837
				c-0.422-0.421-4.46,2.265-4.473,2.975c-0.006,0.319-0.415,1.355-0.909,2.303c-0.729,1.398-0.765,1.971-0.192,3.041
				c0.55,1.027,0.553,2,0.017,4.402c-0.577,2.578-0.542,3.505,0.216,5.652c0.498,1.412,1.467,3.165,2.151,3.895
				c1.503,1.598,2.873,5.329,2.312,6.288C814.73,266.309,814.021,266.285,812.023,265.682L812.023,265.682z"/>
			<path id="path3057" inkscape:connector-curvature="0" fill="#19493C" d="M822.079,268.358c-0.354-1.118-0.827-2.489-1.056-3.048
				c-0.252-0.614-0.155-1.016,0.24-1.016c0.894,0,1.891,2.786,1.65,4.611C822.731,270.296,822.679,270.261,822.079,268.358z"/>
			<path id="path3059" inkscape:connector-curvature="0" fill="#19493C" d="M800.788,252.197c-0.667-0.737-0.815-1.275-0.419-1.521
				c1.016-0.628,2.247,0.453,1.832,1.608C801.84,253.288,801.771,253.284,800.788,252.197L800.788,252.197z"/>
	</g>
</svg>
